<?xml version="1.0" standalone="no"?>
<!DOCTYPE svg PUBLIC "-//W3C//DTD SVG 20010904//EN"
 "http://www.w3.org/TR/2001/REC-SVG-20010904/DTD/svg10.dtd">
<svg version="1.0" xmlns="http://www.w3.org/2000/svg"
 width="294.000000pt" height="294.000000pt" viewBox="0 0 294.000000 294.000000"
 preserveAspectRatio="xMidYMid meet">
<metadata>
Created by potrace 1.14, written by Peter Selinger 2001-2017
</metadata>
<g transform="translate(0.000000,294.000000) scale(0.100000,-0.100000)"
fill="#000000" stroke="none">
<path d="M1326 2900 c-579 -66 -1054 -450 -1229 -995 -54 -168 -62 -225 -62
-445 1 -186 3 -215 27 -317 67 -281 184 -491 392 -699 212 -213 437 -335 736
-400 121 -27 439 -27 560 0 450 98 813 372 1007 761 76 152 98 217 140 425 26
123 21 377 -10 520 -62 292 -185 518 -397 730 -172 173 -342 278 -571 354
-179 59 -418 86 -593 66z m502 -884 c112 -30 192 -103 229 -209 36 -105 16
-306 -43 -419 -26 -51 -77 -59 -93 -14 -6 13 2 47 22 101 27 70 31 93 31 185
1 89 -2 111 -21 145 -45 84 -119 124 -228 125 -108 0 -211 -40 -320 -123 -178
-136 -317 -253 -334 -280 -57 -94 -27 -197 57 -197 19 0 74 18 123 40 125 56
181 53 215 -12 38 -73 -7 -208 -102 -309 -61 -63 -197 -141 -270 -155 -38 -7
-74 15 -74 44 0 19 29 52 45 52 6 0 39 11 74 25 79 31 154 87 192 145 32 49
63 140 52 151 -5 4 -42 -7 -84 -26 -104 -46 -154 -58 -207 -50 -62 9 -117 61
-138 130 -16 50 -16 58 -1 120 9 37 27 83 38 102 20 32 211 191 362 302 164
120 331 165 475 127z m-50 -378 c20 -20 14 -50 -29 -138 -90 -187 -103 -364
-32 -432 97 -92 159 -57 416 237 137 156 161 171 223 141 78 -36 94 -158 41
-311 -34 -100 -61 -147 -102 -183 -41 -37 -72 -47 -118 -38 -44 8 -91 57 -82
85 10 34 42 45 71 26 41 -26 66 -16 96 40 43 80 70 174 66 235 -2 30 -8 55
-13 55 -6 0 -65 -63 -132 -140 -214 -248 -272 -291 -388 -283 -96 6 -176 69
-211 165 -35 99 -2 307 73 458 42 86 87 117 121 83z m-914 -240 c29 -12 40
-38 31 -67 -8 -27 -37 -34 -84 -20 -53 16 -104 4 -146 -32 -108 -95 -35 -269
112 -269 63 0 133 40 199 114 32 36 66 66 75 66 27 0 52 -36 45 -64 -10 -42
-119 -149 -183 -181 -77 -38 -195 -42 -258 -8 -153 82 -187 272 -73 398 70 77
193 104 282 63z"/>
</g>
</svg>
